<svg id="d3plus" width="1000" height="1000" xmlns="http://www.w3.org/2000/svg" xmlns:xlink="http://www.w3.org/1999/xlink"><rect id="bg" fill="#ffffff" stroke="none" width="1000" height="1000"></rect><g id="timeline" transform="translate(0,1000)"></g><g id="key" transform="translate(0,1000)"></g><g id="footer" transform="translate(0,1000)"></g><clipPath id="clipping_d3plus_1526015192084"><rect width="1000" height="1000"></rect></clipPath><g id="container" clip-path="url(#clipping_d3plus_1526015192084)" transform="translate(0,0)"><g id="zoom"><g id="d3plus_viz" transform=""><rect id="d3plus_overlay" width="1000" height="1000" opacity="0" x="0" y="0"></rect><g id="app"><g id="tree_map" opacity="1"></g></g><g id="edges" opacity="1"></g><g id="focus"></g><g id="edge_hover" opacity="0"></g><g id="data" opacity="1"><g opacity="1" transform="translate(973,918.5)scale(1)" id="d3plus_group_A_rect" class="d3plus_rect"><rect class="d3plus_data" x="-26" y="-80.5" width="52" height="161" fill="#b22200" opacity="0.9" vector-effect="non-scaling-stroke" style="stroke: rgb(143, 27, 0); stroke-width: 1;" shape-rendering="crispEdges" transform="" ry="0" rx="0"></rect><text id="d3plus_label_A_rect" class="d3plus_label" opacity="1" font-weight="200" font-family="Helvetica Neue" stroke="none" pointer-events="none" fill="#e9ccc5" text-anchor="middle" font-size="40px" x="-22.5" y="-77" style="font-size: 40px;" transform="rotate(0,0,0)scale(1)translate(0,0)rotate(0, 54.5, 0)translate(0,46.2)"><tspan x="0px" dy="44px" dominant-baseline="alphabetic" style="baseline-shift: 0%;">A</tspan></text></g><g opacity="1" transform="translate(791,419.5)scale(1)" id="d3plus_group_B_rect" class="d3plus_rect"><rect class="d3plus_data" x="-208" y="-418.5" width="416" height="837" fill="#282F6B" opacity="0.9" vector-effect="non-scaling-stroke" style="stroke: rgb(32, 37, 86); stroke-width: 1;" shape-rendering="crispEdges" transform="" ry="0" rx="0"></rect><text id="d3plus_label_B_rect" class="d3plus_label" opacity="1" font-weight="200" font-family="Helvetica Neue" stroke="none" pointer-events="none" fill="#cdceda" text-anchor="middle" font-size="40px" x="-204.5" y="-415" style="font-size: 40px;" transform="rotate(0,0,0)scale(1)translate(0,0)rotate(0, 210.5, 0)translate(0,384.2)"><tspan x="0px" dy="44px" dominant-baseline="alphabetic" style="baseline-shift: 0%;">B</tspan></text></g><g opacity="1" transform="translate(292,419.5)scale(1)" id="d3plus_group_C_rect" class="d3plus_rect"><rect class="d3plus_data" x="-291" y="-418.5" width="582" height="837" fill="#EACE3F" opacity="0.9" vector-effect="non-scaling-stroke" style="stroke: rgb(188, 166, 50); stroke-width: 1;" shape-rendering="crispEdges" transform="" ry="0" rx="0"></rect><text id="d3plus_label_C_rect" class="d3plus_label" opacity="1" font-weight="200" font-family="Helvetica Neue" stroke="none" pointer-events="none" fill="#655f43" text-anchor="middle" font-size="40px" x="-287.5" y="-415" style="font-size: 40px;" transform="rotate(0,0,0)scale(1)translate(0,0)rotate(0, 127.5, 0)translate(0,384.2)"><tspan x="0px" dy="44px" dominant-baseline="alphabetic" style="baseline-shift: 0%;">C</tspan></text></g><g opacity="1" transform="translate(474,918.5)scale(1)" id="d3plus_group_other_rect" class="d3plus_rect"><rect class="d3plus_data" x="-473" y="-80.5" width="946" height="161" fill="#224F20" opacity="0.9" vector-effect="non-scaling-stroke" style="stroke: rgb(27, 63, 25); stroke-width: 1;" shape-rendering="crispEdges" transform="" ry="0" rx="0"></rect><text id="d3plus_label_other_rect" class="d3plus_label" opacity="1" font-weight="200" font-family="Helvetica Neue" stroke="none" pointer-events="none" fill="#ccd5cc" text-anchor="middle" font-size="40px" x="-469.5" y="-77" style="font-size: 40px;" transform="rotate(0,0,0)scale(1)translate(0,0)rotate(0, -392.5, 0)translate(0,46.2)"><tspan x="0px" dy="44px" dominant-baseline="alphabetic" style="baseline-shift: 0%;">Other</tspan></text></g></g><g id="data_focus"></g><g id="d3plus_labels"></g></g></g></g><defs></defs></svg>