<svg id="d3plus" width="1729.46" height="847" xmlns="http://www.w3.org/2000/svg" xmlns:xlink="http://www.w3.org/1999/xlink"><rect id="bg" fill="#ffffff" stroke="none" width="1729.46" height="847"></rect><g id="timeline" transform="translate(0,847)"></g><g id="key" transform="translate(0,847)"></g><g id="footer" transform="translate(0,847)"></g><clipPath id="clipping_d3plus_1525958212897"><rect width="1729.46" height="847"></rect></clipPath><g id="container" clip-path="url(#clipping_d3plus_1525958212897)" transform="translate(0,0)"><g id="zoom"><g id="d3plus_viz" transform=""><rect id="d3plus_overlay" width="1729.46" height="847" opacity="0" x="0" y="0" style="cursor: auto;"></rect><g id="app"><g id="tree_map" opacity="1"></g></g><g id="edges" opacity="1"></g><g id="focus"></g><g id="edge_hover" opacity="0"></g><g id="data" opacity="1"><g opacity="1" transform="translate(1689.73,793.5)scale(1)" id="d3plus_group_A_rect" class="d3plus_rect"><rect class="d3plus_data" x="-38.73000000000002" y="-52.5" width="77.46000000000004" height="105" fill="#b22200" opacity="0.9" vector-effect="non-scaling-stroke" style="stroke: rgb(143, 27, 0); stroke-width: 1;" shape-rendering="crispEdges" transform="" ry="0" rx="0"></rect><text id="d3plus_label_A_rect" class="d3plus_label" opacity="1" font-weight="200" font-family="Helvetica Neue" stroke="none" pointer-events="none" fill="#e9ccc5" text-anchor="middle" font-size="40px" x="-35.23000000000002" y="-49" style="font-size: 40px;" transform="rotate(0,0,0)scale(1)translate(0,0)rotate(0, 13.769999999999982, 0)translate(0,18.2)"><tspan x="0px" dy="44px" dominant-baseline="alphabetic" style="baseline-shift: 0%;">A</tspan></text></g><g opacity="1" transform="translate(1689.73,628.5)scale(1)" id="d3plus_group_B_rect" class="d3plus_rect"><rect class="d3plus_data" x="-38.73000000000002" y="-112.5" width="77.46000000000004" height="225" fill="#282F6B" opacity="0.9" vector-effect="non-scaling-stroke" style="stroke: rgb(32, 37, 86); stroke-width: 1;" shape-rendering="crispEdges" transform="" ry="0" rx="0"></rect><text id="d3plus_label_B_rect" class="d3plus_label" opacity="1" font-weight="200" font-family="Helvetica Neue" stroke="none" pointer-events="none" fill="#cdceda" text-anchor="middle" font-size="40px" x="-35.23000000000002" y="-109" style="font-size: 40px;" transform="rotate(0,0,0)scale(1)translate(0,0)rotate(0, 73.76999999999998, 0)translate(0,78.2)"><tspan x="0px" dy="44px" dominant-baseline="alphabetic" style="baseline-shift: 0%;">B</tspan></text></g><g opacity="1" transform="translate(1497.23,258.5)scale(1)" id="d3plus_group_C_rect" class="d3plus_rect"><rect class="d3plus_data" x="-231.23000000000002" y="-257.5" width="462.46000000000004" height="515" fill="#EACE3F" opacity="0.9" vector-effect="non-scaling-stroke" style="stroke: rgb(188, 166, 50); stroke-width: 1;" shape-rendering="crispEdges" transform="" ry="0" rx="0"></rect><text id="d3plus_label_C_rect" class="d3plus_label" opacity="1" font-weight="200" font-family="Helvetica Neue" stroke="none" pointer-events="none" fill="#655f43" text-anchor="middle" font-size="40px" x="-227.73000000000002" y="-254" style="font-size: 40px;" transform="rotate(0,0,0)scale(1)translate(0,0)rotate(0, 26.269999999999982, 0)translate(0,223.2)"><tspan x="0px" dy="44px" dominant-baseline="alphabetic" style="baseline-shift: 0%;">C</tspan></text></g><g opacity="1" transform="translate(1458.5,681)scale(1)" id="d3plus_group_D_rect" class="d3plus_rect"><rect class="d3plus_data" x="-192.5" y="-165" width="385" height="330" fill="#B35C1E" opacity="0.9" vector-effect="non-scaling-stroke" style="stroke: rgb(144, 74, 24); stroke-width: 1;" shape-rendering="crispEdges" transform="" ry="0" rx="0"></rect><text id="d3plus_label_D_rect" class="d3plus_label" opacity="1" font-weight="200" font-family="Helvetica Neue" stroke="none" pointer-events="none" fill="#e9d7cb" text-anchor="middle" font-size="40px" x="-189" y="-161.5" style="font-size: 40px;" transform="rotate(0,0,0)scale(1)translate(0,0)rotate(0, -27.5, 0)translate(0,130.7)"><tspan x="0px" dy="44px" dominant-baseline="alphabetic" style="baseline-shift: 0%;">D</tspan></text></g><g opacity="1" transform="translate(633.5,423.5)scale(1)" id="d3plus_group_other_rect" class="d3plus_rect"><rect class="d3plus_data" x="-632.5" y="-422.5" width="1265" height="845" fill="#224F20" opacity="0.9" vector-effect="non-scaling-stroke" style="stroke: rgb(27, 63, 25); stroke-width: 1;" shape-rendering="crispEdges" transform="" ry="0" rx="0"></rect><text id="d3plus_label_other_rect" class="d3plus_label" opacity="1" font-weight="200" font-family="Helvetica Neue" stroke="none" pointer-events="none" fill="#ccd5cc" text-anchor="middle" font-size="40px" x="-629" y="-419" style="font-size: 40px;" transform="rotate(0,0,0)scale(1)translate(0,0)rotate(0, -210, 0)translate(0,388.2)"><tspan x="0px" dy="44px" dominant-baseline="alphabetic" style="baseline-shift: 0%;">Other</tspan></text></g></g><g id="data_focus"></g><g id="d3plus_labels"></g></g></g></g><defs></defs></svg>