<svg id="d3plus" width="1714.01" height="847" xmlns="http://www.w3.org/2000/svg" xmlns:xlink="http://www.w3.org/1999/xlink"><rect id="bg" fill="#ffffff" stroke="none" width="1714.01" height="847"></rect><g id="timeline" transform="translate(0,847)"></g><g id="key" transform="translate(0,847)"></g><g id="footer" transform="translate(0,847)"></g><clipPath id="clipping_d3plus_1525958212914"><rect width="1714.01" height="847"></rect></clipPath><g id="container" clip-path="url(#clipping_d3plus_1525958212914)" transform="translate(0,0)"><g id="zoom"><g id="d3plus_viz" transform=""><rect id="d3plus_overlay" width="1714.01" height="847" opacity="0" x="0" y="0"></rect><g id="app"><g id="tree_map" opacity="1"></g></g><g id="edges" opacity="1"></g><g id="focus"></g><g id="edge_hover" opacity="0"></g><g id="data" opacity="1"><g opacity="1" transform="translate(1684.505,838.5)scale(1)" id="d3plus_group_A_rect" class="d3plus_rect"><rect class="d3plus_data" x="-28.504999999999995" y="-7.5" width="57.00999999999999" height="15" fill="#b22200" opacity="0.9" vector-effect="non-scaling-stroke" style="stroke: rgb(143, 27, 0); stroke-width: 1;" shape-rendering="crispEdges" transform="" ry="0" rx="0"></rect></g><g opacity="1" transform="translate(1684.505,806.5)scale(1)" id="d3plus_group_B_rect" class="d3plus_rect"><rect class="d3plus_data" x="-28.504999999999995" y="-24.5" width="57.00999999999999" height="49" fill="#282F6B" opacity="0.9" vector-effect="non-scaling-stroke" style="stroke: rgb(32, 37, 86); stroke-width: 1;" shape-rendering="crispEdges" transform="" ry="0" rx="0"></rect><text id="d3plus_label_B_rect" class="d3plus_label" opacity="1" font-weight="200" font-family="Helvetica Neue" stroke="none" pointer-events="none" fill="#cdceda" text-anchor="middle" font-size="33px" x="-25.004999999999995" y="-21" style="font-size: 33px;" transform="rotate(0,0,0)scale(1)translate(0,0)rotate(0, -4.0049999999999955, 0)translate(0,-4.410000000000004)"><tspan x="0px" dy="36.300000000000004px" dominant-baseline="alphabetic" style="baseline-shift: 0%;">B</tspan></text></g><g opacity="1" transform="translate(1684.505,720)scale(1)" id="d3plus_group_C_rect" class="d3plus_rect"><rect class="d3plus_data" x="-28.504999999999995" y="-62" width="57.00999999999999" height="124" fill="#EACE3F" opacity="0.9" vector-effect="non-scaling-stroke" style="stroke: rgb(188, 166, 50); stroke-width: 1;" shape-rendering="crispEdges" transform="" ry="0" rx="0"></rect><text id="d3plus_label_C_rect" class="d3plus_label" opacity="1" font-weight="200" font-family="Helvetica Neue" stroke="none" pointer-events="none" fill="#655f43" text-anchor="middle" font-size="40px" x="-25.004999999999995" y="-58.5" style="font-size: 40px;" transform="rotate(0,0,0)scale(1)translate(0,0)rotate(0, 33.495000000000005, 0)translate(0,27.7)"><tspan x="0px" dy="44px" dominant-baseline="alphabetic" style="baseline-shift: 0%;">C</tspan></text></g><g opacity="1" transform="translate(1684.505,534)scale(1)" id="d3plus_group_D_rect" class="d3plus_rect"><rect class="d3plus_data" x="-28.504999999999995" y="-124" width="57.00999999999999" height="248" fill="#B35C1E" opacity="0.9" vector-effect="non-scaling-stroke" style="stroke: rgb(144, 74, 24); stroke-width: 1;" shape-rendering="crispEdges" transform="" ry="0" rx="0"></rect><text id="d3plus_label_D_rect" class="d3plus_label" opacity="1" font-weight="200" font-family="Helvetica Neue" stroke="none" pointer-events="none" fill="#e9d7cb" text-anchor="middle" font-size="40px" x="-25.004999999999995" y="-120.5" style="font-size: 40px;" transform="rotate(0,0,0)scale(1)translate(0,0)rotate(0, 95.495, 0)translate(0,89.7)"><tspan x="0px" dy="44px" dominant-baseline="alphabetic" style="baseline-shift: 0%;">D</tspan></text></g><g opacity="1" transform="translate(1684.505,205.5)scale(1)" id="d3plus_group_E_rect" class="d3plus_rect"><rect class="d3plus_data" x="-28.504999999999995" y="-204.5" width="57.00999999999999" height="409" fill="#5F487C" opacity="0.9" vector-effect="non-scaling-stroke" style="stroke: rgb(76, 58, 100); stroke-width: 1;" shape-rendering="crispEdges" transform="" ry="0" rx="0"></rect><text id="d3plus_label_E_rect" class="d3plus_label" opacity="1" font-weight="200" font-family="Helvetica Neue" stroke="none" pointer-events="none" fill="#d8d3de" text-anchor="middle" font-size="40px" x="-25.004999999999995" y="-201" style="font-size: 40px;" transform="rotate(0,0,0)scale(1)translate(0,0)rotate(0, 175.995, 0)translate(0,170.2)"><tspan x="0px" dy="44px" dominant-baseline="alphabetic" style="baseline-shift: 0%;">E</tspan></text></g><g opacity="1" transform="translate(828.5,423.5)scale(1)" id="d3plus_group_other_rect" class="d3plus_rect" style="cursor: auto;"><rect class="d3plus_data" x="-827.5" y="-422.5" width="1655" height="845" fill="#224F20" opacity="0.9" vector-effect="non-scaling-stroke" style="stroke: rgb(27, 63, 25); stroke-width: 1;" shape-rendering="crispEdges" transform="" ry="0" rx="0"></rect><text id="d3plus_label_other_rect" class="d3plus_label" opacity="1" font-weight="200" font-family="Helvetica Neue" stroke="none" pointer-events="none" fill="#ccd5cc" text-anchor="middle" font-size="40px" x="-824" y="-419" style="font-size: 40px;" transform="rotate(0,0,0)scale(1)translate(0,0)rotate(0, -405, 0)translate(0,388.2)"><tspan x="0px" dy="44px" dominant-baseline="alphabetic" style="baseline-shift: 0%;">Other</tspan></text></g></g><g id="data_focus"></g><g id="d3plus_labels"></g></g></g></g><defs></defs></svg>