<svg id="d3plus" width="1000" height="1000" xmlns="http://www.w3.org/2000/svg" xmlns:xlink="http://www.w3.org/1999/xlink"><rect id="bg" fill="#ffffff" stroke="none" width="1000" height="1000"></rect><g id="timeline" transform="translate(0,1000)"></g><g id="key" transform="translate(0,1000)"></g><g id="footer" transform="translate(0,1000)"></g><clipPath id="clipping_d3plus_1526015192093"><rect width="1000" height="1000"></rect></clipPath><g id="container" clip-path="url(#clipping_d3plus_1526015192093)" transform="translate(0,0)"><g id="zoom"><g id="d3plus_viz" transform=""><rect id="d3plus_overlay" width="1000" height="1000" opacity="0" x="0" y="0"></rect><g id="app"><g id="tree_map" opacity="1"></g></g><g id="edges" opacity="1"></g><g id="focus"></g><g id="edge_hover" opacity="0"></g><g id="data" opacity="1"><g opacity="1" transform="translate(994,982.5)scale(1)" id="d3plus_group_A_rect" class="d3plus_rect"><rect class="d3plus_data" x="-5" y="-16.5" width="10" height="33" fill="#b22200" opacity="0.9" vector-effect="non-scaling-stroke" style="stroke: rgb(143, 27, 0); stroke-width: 1;" shape-rendering="crispEdges" transform="" ry="0" rx="0"></rect></g><g opacity="1" transform="translate(960,982.5)scale(1)" id="d3plus_group_B_rect" class="d3plus_rect"><rect class="d3plus_data" x="-29" y="-16.5" width="58" height="33" fill="#282F6B" opacity="0.9" vector-effect="non-scaling-stroke" style="stroke: rgb(32, 37, 86); stroke-width: 1;" shape-rendering="crispEdges" transform="" ry="0" rx="0"></rect><text id="d3plus_label_B_rect" class="d3plus_label" opacity="1" font-weight="200" font-family="Helvetica Neue" stroke="none" pointer-events="none" fill="#cdceda" text-anchor="middle" font-size="20px" x="-25.5" y="-13" style="font-size: 20px;" transform="rotate(0,0,0)scale(1)translate(0,0)rotate(0, -12.5, 0)translate(0,-2.4000000000000004)"><tspan x="0px" dy="22px" dominant-baseline="alphabetic" style="baseline-shift: 0%;">B</tspan></text></g><g opacity="1" transform="translate(857,982.5)scale(1)" id="d3plus_group_C_rect" class="d3plus_rect"><rect class="d3plus_data" x="-74" y="-16.5" width="148" height="33" fill="#EACE3F" opacity="0.9" vector-effect="non-scaling-stroke" style="stroke: rgb(188, 166, 50); stroke-width: 1;" shape-rendering="crispEdges" transform="" ry="0" rx="0"></rect><text id="d3plus_label_C_rect" class="d3plus_label" opacity="1" font-weight="200" font-family="Helvetica Neue" stroke="none" pointer-events="none" fill="#655f43" text-anchor="middle" font-size="20px" x="-70.5" y="-13" style="font-size: 20px;" transform="rotate(0,0,0)scale(1)translate(0,0)rotate(0, -57.5, 0)translate(0,-2.4000000000000004)"><tspan x="0px" dy="22px" dominant-baseline="alphabetic" style="baseline-shift: 0%;">C</tspan></text></g><g opacity="1" transform="translate(635.5,982.5)scale(1)" id="d3plus_group_D_rect" class="d3plus_rect"><rect class="d3plus_data" x="-147.5" y="-16.5" width="295" height="33" fill="#B35C1E" opacity="0.9" vector-effect="non-scaling-stroke" style="stroke: rgb(144, 74, 24); stroke-width: 1;" shape-rendering="crispEdges" transform="" ry="0" rx="0"></rect><text id="d3plus_label_D_rect" class="d3plus_label" opacity="1" font-weight="200" font-family="Helvetica Neue" stroke="none" pointer-events="none" fill="#e9d7cb" text-anchor="middle" font-size="20px" x="-144" y="-13" style="font-size: 20px;" transform="rotate(0,0,0)scale(1)translate(0,0)rotate(0, -131, 0)translate(0,-2.4000000000000004)"><tspan x="0px" dy="22px" dominant-baseline="alphabetic" style="baseline-shift: 0%;">D</tspan></text></g><g opacity="1" transform="translate(244.5,982.5)scale(1)" id="d3plus_group_E_rect" class="d3plus_rect"><rect class="d3plus_data" x="-243.5" y="-16.5" width="487" height="33" fill="#5F487C" opacity="0.9" vector-effect="non-scaling-stroke" style="stroke: rgb(76, 58, 100); stroke-width: 1;" shape-rendering="crispEdges" transform="" ry="0" rx="0"></rect><text id="d3plus_label_E_rect" class="d3plus_label" opacity="1" font-weight="200" font-family="Helvetica Neue" stroke="none" pointer-events="none" fill="#d8d3de" text-anchor="middle" font-size="20px" x="-240" y="-13" style="font-size: 20px;" transform="rotate(0,0,0)scale(1)translate(0,0)rotate(0, -227, 0)translate(0,-2.4000000000000004)"><tspan x="0px" dy="22px" dominant-baseline="alphabetic" style="baseline-shift: 0%;">E</tspan></text></g><g opacity="1" transform="translate(500,483.5)scale(1)" id="d3plus_group_other_rect" class="d3plus_rect" style="cursor: auto;"><rect class="d3plus_data" x="-499" y="-482.5" width="998" height="965" fill="#224F20" opacity="0.9" vector-effect="non-scaling-stroke" style="stroke: rgb(27, 63, 25); stroke-width: 1;" shape-rendering="crispEdges" transform="" ry="0" rx="0"></rect><text id="d3plus_label_other_rect" class="d3plus_label" opacity="1" font-weight="200" font-family="Helvetica Neue" stroke="none" pointer-events="none" fill="#ccd5cc" text-anchor="middle" font-size="40px" x="-495.5" y="-479" style="font-size: 40px;" transform="rotate(0,0,0)scale(1)translate(0,0)rotate(0, -16.5, 0)translate(0,448.2)"><tspan x="0px" dy="44px" dominant-baseline="alphabetic" style="baseline-shift: 0%;">Other</tspan></text></g></g><g id="data_focus"></g><g id="d3plus_labels"></g></g></g></g><defs></defs></svg>