<svg id="d3plus" width="1000" height="1000" xmlns="http://www.w3.org/2000/svg" xmlns:xlink="http://www.w3.org/1999/xlink"><rect id="bg" fill="#ffffff" stroke="none" width="1000" height="1000"></rect><g id="timeline" transform="translate(0,1000)"></g><g id="key" transform="translate(0,1000)"></g><g id="footer" transform="translate(0,1000)"></g><clipPath id="clipping_d3plus_1526015192090"><rect width="1000" height="1000"></rect></clipPath><g id="container" clip-path="url(#clipping_d3plus_1526015192090)" transform="translate(0,0)"><g id="zoom"><g id="d3plus_viz" transform=""><rect id="d3plus_overlay" width="1000" height="1000" opacity="0" x="0" y="0"></rect><g id="app"><g id="tree_map" opacity="1"></g></g><g id="edges" opacity="1"></g><g id="focus"></g><g id="edge_hover" opacity="0"></g><g id="data" opacity="1"><g opacity="1" transform="translate(893.5,959.5)scale(1)" id="d3plus_group_A_rect" class="d3plus_rect"><rect class="d3plus_data" x="-50.5" y="-39.5" width="101" height="79" fill="#b22200" opacity="0.9" vector-effect="non-scaling-stroke" style="stroke: rgb(143, 27, 0); stroke-width: 1;" shape-rendering="crispEdges" transform="" ry="0" rx="0"></rect><text id="d3plus_label_A_rect" class="d3plus_label" opacity="1" font-weight="200" font-family="Helvetica Neue" stroke="none" pointer-events="none" fill="#e9ccc5" text-anchor="middle" font-size="40px" x="-47" y="-36" style="font-size: 40px;" transform="rotate(0,0,0)scale(1)translate(0,0)rotate(0, -11, 0)translate(0,5.199999999999999)"><tspan x="0px" dy="44px" dominant-baseline="alphabetic" style="baseline-shift: 0%;">A</tspan></text></g><g opacity="1" transform="translate(921,861)scale(1)" id="d3plus_group_B_rect" class="d3plus_rect"><rect class="d3plus_data" x="-78" y="-59" width="156" height="118" fill="#282F6B" opacity="0.9" vector-effect="non-scaling-stroke" style="stroke: rgb(32, 37, 86); stroke-width: 1;" shape-rendering="crispEdges" transform="" ry="0" rx="0"></rect><text id="d3plus_label_B_rect" class="d3plus_label" opacity="1" font-weight="200" font-family="Helvetica Neue" stroke="none" pointer-events="none" fill="#cdceda" text-anchor="middle" font-size="40px" x="-74.5" y="-55.5" style="font-size: 40px;" transform="rotate(0,0,0)scale(1)translate(0,0)rotate(0, -19, 0)translate(0,24.7)"><tspan x="0px" dy="44px" dominant-baseline="alphabetic" style="baseline-shift: 0%;">B</tspan></text></g><g opacity="1" transform="translate(971.5,959.5)scale(1)" id="d3plus_group_C_rect" class="d3plus_rect"><rect class="d3plus_data" x="-27.5" y="-39.5" width="55" height="79" fill="#EACE3F" opacity="0.9" vector-effect="non-scaling-stroke" style="stroke: rgb(188, 166, 50); stroke-width: 1;" shape-rendering="crispEdges" transform="" ry="0" rx="0"></rect><text id="d3plus_label_C_rect" class="d3plus_label" opacity="1" font-weight="200" font-family="Helvetica Neue" stroke="none" pointer-events="none" fill="#655f43" text-anchor="middle" font-size="40px" x="-24" y="-36" style="font-size: 40px;" transform="rotate(0,0,0)scale(1)translate(0,0)rotate(0, 12, 0)translate(0,5.199999999999999)"><tspan x="0px" dy="44px" dominant-baseline="alphabetic" style="baseline-shift: 0%;">C</tspan></text></g><g opacity="1" transform="translate(562.5,900.5)scale(1)" id="d3plus_group_D_rect" class="d3plus_rect"><rect class="d3plus_data" x="-93.5" y="-98.5" width="187" height="197" fill="#B35C1E" opacity="0.9" vector-effect="non-scaling-stroke" style="stroke: rgb(144, 74, 24); stroke-width: 1;" shape-rendering="crispEdges" transform="" ry="0" rx="0"></rect><text id="d3plus_label_D_rect" class="d3plus_label" opacity="1" font-weight="200" font-family="Helvetica Neue" stroke="none" pointer-events="none" fill="#e9d7cb" text-anchor="middle" font-size="40px" x="-90" y="-95" style="font-size: 40px;" transform="rotate(0,0,0)scale(1)translate(0,0)rotate(0, 5, 0)translate(0,64.2)"><tspan x="0px" dy="44px" dominant-baseline="alphabetic" style="baseline-shift: 0%;">D</tspan></text></g><g opacity="1" transform="translate(749.5,900.5)scale(1)" id="d3plus_group_E_rect" class="d3plus_rect"><rect class="d3plus_data" x="-93.5" y="-98.5" width="187" height="197" fill="#5F487C" opacity="0.9" vector-effect="non-scaling-stroke" style="stroke: rgb(76, 58, 100); stroke-width: 1;" shape-rendering="crispEdges" transform="" ry="0" rx="0"></rect><text id="d3plus_label_E_rect" class="d3plus_label" opacity="1" font-weight="200" font-family="Helvetica Neue" stroke="none" pointer-events="none" fill="#d8d3de" text-anchor="middle" font-size="40px" x="-90" y="-95" style="font-size: 40px;" transform="rotate(0,0,0)scale(1)translate(0,0)rotate(0, 5, 0)translate(0,64.2)"><tspan x="0px" dy="44px" dominant-baseline="alphabetic" style="baseline-shift: 0%;">E</tspan></text></g><g opacity="1" transform="translate(235,900.5)scale(1)" id="d3plus_group_F_rect" class="d3plus_rect"><rect class="d3plus_data" x="-234" y="-98.5" width="468" height="197" fill="#759143" opacity="0.9" vector-effect="non-scaling-stroke" style="stroke: rgb(94, 117, 54); stroke-width: 1;" shape-rendering="crispEdges" transform="" ry="0" rx="0"></rect><text id="d3plus_label_F_rect" class="d3plus_label" opacity="1" font-weight="200" font-family="Helvetica Neue" stroke="none" pointer-events="none" fill="#dce2d2" text-anchor="middle" font-size="40px" x="-230.5" y="-95" style="font-size: 40px;" transform="rotate(0,0,0)scale(1)translate(0,0)rotate(0, -135.5, 0)translate(0,64.2)"><tspan x="0px" dy="44px" dominant-baseline="alphabetic" style="baseline-shift: 0%;">F</tspan></text></g><g opacity="1" transform="translate(878,401.5)scale(1)" id="d3plus_group_G_rect" class="d3plus_rect"><rect class="d3plus_data" x="-121" y="-400.5" width="242" height="801" fill="#419391" opacity="0.9" vector-effect="non-scaling-stroke" style="stroke: rgb(52, 118, 117); stroke-width: 1;" shape-rendering="crispEdges" transform="" ry="0" rx="0"></rect><text id="d3plus_label_G_rect" class="d3plus_label" opacity="1" font-weight="200" font-family="Helvetica Neue" stroke="none" pointer-events="none" fill="#d2e2e2" text-anchor="middle" font-size="40px" x="-117.5" y="-397" style="font-size: 40px;" transform="rotate(0,0,0)scale(1)translate(0,0)rotate(0, 279.5, 0)translate(0,366.2)"><tspan x="0px" dy="44px" dominant-baseline="alphabetic" style="baseline-shift: 0%;">G</tspan></text></g><g opacity="1" transform="translate(379,401.5)scale(1)" id="d3plus_group_other_rect" class="d3plus_rect"><rect class="d3plus_data" x="-378" y="-400.5" width="756" height="801" fill="#224F20" opacity="0.9" vector-effect="non-scaling-stroke" style="stroke: rgb(27, 63, 25); stroke-width: 1;" shape-rendering="crispEdges" transform="" ry="0" rx="0"></rect><text id="d3plus_label_other_rect" class="d3plus_label" opacity="1" font-weight="200" font-family="Helvetica Neue" stroke="none" pointer-events="none" fill="#ccd5cc" text-anchor="middle" font-size="40px" x="-374.5" y="-397" style="font-size: 40px;" transform="rotate(0,0,0)scale(1)translate(0,0)rotate(0, 22.5, 0)translate(0,366.2)"><tspan x="0px" dy="44px" dominant-baseline="alphabetic" style="baseline-shift: 0%;">Other</tspan></text></g></g><g id="data_focus"></g><g id="d3plus_labels"></g></g></g></g><defs></defs></svg>