<svg id="d3plus" width="1714.01" height="847" xmlns="http://www.w3.org/2000/svg" xmlns:xlink="http://www.w3.org/1999/xlink"><rect id="bg" fill="#ffffff" stroke="none" width="1714.01" height="847"></rect><g id="timeline" transform="translate(0,847)"></g><g id="key" transform="translate(0,847)"></g><g id="footer" transform="translate(0,847)"></g><clipPath id="clipping_d3plus_1525958212911"><rect width="1714.01" height="847"></rect></clipPath><g id="container" clip-path="url(#clipping_d3plus_1525958212911)" transform="translate(0,0)"><g id="zoom"><g id="d3plus_viz" transform=""><rect id="d3plus_overlay" width="1714.01" height="847" opacity="0" x="0" y="0"></rect><g id="app"><g id="tree_map" opacity="1"></g></g><g id="edges" opacity="1"></g><g id="focus"></g><g id="edge_hover" opacity="0"></g><g id="data" opacity="1"><g opacity="1" transform="translate(1683.005,717)scale(1)" id="d3plus_group_A_rect" class="d3plus_rect"><rect class="d3plus_data" x="-30.004999999999995" y="-97" width="60.00999999999999" height="194" fill="#b22200" opacity="0.9" vector-effect="non-scaling-stroke" style="stroke: rgb(143, 27, 0); stroke-width: 1;" shape-rendering="crispEdges" transform="" ry="0" rx="0"></rect><text id="d3plus_label_A_rect" class="d3plus_label" opacity="1" font-weight="200" font-family="Helvetica Neue" stroke="none" pointer-events="none" fill="#e9ccc5" text-anchor="middle" font-size="40px" x="-26.504999999999995" y="-93.5" style="font-size: 40px;" transform="rotate(0,0,0)scale(1)translate(0,0)rotate(0, 66.995, 0)translate(0,62.7)"><tspan x="0px" dy="44px" dominant-baseline="alphabetic" style="baseline-shift: 0%;">A</tspan></text></g><g opacity="1" transform="translate(1584,717)scale(1)" id="d3plus_group_B_rect" class="d3plus_rect"><rect class="d3plus_data" x="-69" y="-97" width="138" height="194" fill="#282F6B" opacity="0.9" vector-effect="non-scaling-stroke" style="stroke: rgb(32, 37, 86); stroke-width: 1;" shape-rendering="crispEdges" transform="" ry="0" rx="0"></rect><text id="d3plus_label_B_rect" class="d3plus_label" opacity="1" font-weight="200" font-family="Helvetica Neue" stroke="none" pointer-events="none" fill="#cdceda" text-anchor="middle" font-size="40px" x="-65.5" y="-93.5" style="font-size: 40px;" transform="rotate(0,0,0)scale(1)translate(0,0)rotate(0, 28, 0)translate(0,62.7)"><tspan x="0px" dy="44px" dominant-baseline="alphabetic" style="baseline-shift: 0%;">B</tspan></text></g><g opacity="1" transform="translate(1614.005,830)scale(1)" id="d3plus_group_C_rect" class="d3plus_rect"><rect class="d3plus_data" x="-99.005" y="-16" width="198.01" height="32" fill="#EACE3F" opacity="0.9" vector-effect="non-scaling-stroke" style="stroke: rgb(188, 166, 50); stroke-width: 1;" shape-rendering="crispEdges" transform="" ry="0" rx="0"></rect><text id="d3plus_label_C_rect" class="d3plus_label" opacity="1" font-weight="200" font-family="Helvetica Neue" stroke="none" pointer-events="none" fill="#655f43" text-anchor="middle" font-size="20px" x="-95.505" y="-12.5" style="font-size: 20px;" transform="rotate(0,0,0)scale(1)translate(0,0)rotate(0, -83.005, 0)translate(0,-2.9000000000000004)"><tspan x="0px" dy="22px" dominant-baseline="alphabetic" style="baseline-shift: 0%;">C</tspan></text></g><g opacity="1" transform="translate(1159.5,733)scale(1)" id="d3plus_group_D_rect" class="d3plus_rect" style="cursor: auto;"><rect class="d3plus_data" x="-118.5" y="-113" width="237" height="226" fill="#B35C1E" opacity="0.9" vector-effect="non-scaling-stroke" style="stroke: rgb(144, 74, 24); stroke-width: 1;" shape-rendering="crispEdges" transform="" ry="0" rx="0"></rect><text id="d3plus_label_D_rect" class="d3plus_label" opacity="1" font-weight="200" font-family="Helvetica Neue" stroke="none" pointer-events="none" fill="#e9d7cb" text-anchor="middle" font-size="40px" x="-115" y="-109.5" style="font-size: 40px;" transform="rotate(0,0,0)scale(1)translate(0,0)rotate(0, -5.5, 0)translate(0,78.7)"><tspan x="0px" dy="44px" dominant-baseline="alphabetic" style="baseline-shift: 0%;">D</tspan></text></g><g opacity="1" transform="translate(1396.5,733)scale(1)" id="d3plus_group_E_rect" class="d3plus_rect"><rect class="d3plus_data" x="-118.5" y="-113" width="237" height="226" fill="#5F487C" opacity="0.9" vector-effect="non-scaling-stroke" style="stroke: rgb(76, 58, 100); stroke-width: 1;" shape-rendering="crispEdges" transform="" ry="0" rx="0"></rect><text id="d3plus_label_E_rect" class="d3plus_label" opacity="1" font-weight="200" font-family="Helvetica Neue" stroke="none" pointer-events="none" fill="#d8d3de" text-anchor="middle" font-size="40px" x="-115" y="-109.5" style="font-size: 40px;" transform="rotate(0,0,0)scale(1)translate(0,0)rotate(0, -5.5, 0)translate(0,78.7)"><tspan x="0px" dy="44px" dominant-baseline="alphabetic" style="baseline-shift: 0%;">E</tspan></text></g><g opacity="1" transform="translate(1604.505,310.5)scale(1)" id="d3plus_group_F_rect" class="d3plus_rect"><rect class="d3plus_data" x="-108.505" y="-309.5" width="217.01" height="619" fill="#759143" opacity="0.9" vector-effect="non-scaling-stroke" style="stroke: rgb(94, 117, 54); stroke-width: 1;" shape-rendering="crispEdges" transform="" ry="0" rx="0"></rect><text id="d3plus_label_F_rect" class="d3plus_label" opacity="1" font-weight="200" font-family="Helvetica Neue" stroke="none" pointer-events="none" fill="#dce2d2" text-anchor="middle" font-size="40px" x="-105.005" y="-306" style="font-size: 40px;" transform="rotate(0,0,0)scale(1)translate(0,0)rotate(0, 200.995, 0)translate(0,275.2)"><tspan x="0px" dy="44px" dominant-baseline="alphabetic" style="baseline-shift: 0%;">F</tspan></text></g><g opacity="1" transform="translate(1268.5,310.5)scale(1)" id="d3plus_group_G_rect" class="d3plus_rect"><rect class="d3plus_data" x="-227.5" y="-309.5" width="455" height="619" fill="#419391" opacity="0.9" vector-effect="non-scaling-stroke" style="stroke: rgb(52, 118, 117); stroke-width: 1;" shape-rendering="crispEdges" transform="" ry="0" rx="0"></rect><text id="d3plus_label_G_rect" class="d3plus_label" opacity="1" font-weight="200" font-family="Helvetica Neue" stroke="none" pointer-events="none" fill="#d2e2e2" text-anchor="middle" font-size="40px" x="-224" y="-306" style="font-size: 40px;" transform="rotate(0,0,0)scale(1)translate(0,0)rotate(0, 82, 0)translate(0,275.2)"><tspan x="0px" dy="44px" dominant-baseline="alphabetic" style="baseline-shift: 0%;">G</tspan></text></g><g opacity="1" transform="translate(521,423.5)scale(1)" id="d3plus_group_other_rect" class="d3plus_rect"><rect class="d3plus_data" x="-520" y="-422.5" width="1040" height="845" fill="#224F20" opacity="0.9" vector-effect="non-scaling-stroke" style="stroke: rgb(27, 63, 25); stroke-width: 1;" shape-rendering="crispEdges" transform="" ry="0" rx="0"></rect><text id="d3plus_label_other_rect" class="d3plus_label" opacity="1" font-weight="200" font-family="Helvetica Neue" stroke="none" pointer-events="none" fill="#ccd5cc" text-anchor="middle" font-size="40px" x="-516.5" y="-419" style="font-size: 40px;" transform="rotate(0,0,0)scale(1)translate(0,0)rotate(0, -97.5, 0)translate(0,388.2)"><tspan x="0px" dy="44px" dominant-baseline="alphabetic" style="baseline-shift: 0%;">Other</tspan></text></g></g><g id="data_focus"></g><g id="d3plus_labels"></g></g></g></g><defs></defs></svg>