<svg id="d3plus" width="1000" height="1000" xmlns="http://www.w3.org/2000/svg" xmlns:xlink="http://www.w3.org/1999/xlink"><rect id="bg" fill="#ffffff" stroke="none" width="1000" height="1000"></rect><g id="timeline" transform="translate(0,1000)"></g><g id="key" transform="translate(0,1000)"></g><g id="footer" transform="translate(0,1000)"></g><clipPath id="clipping_d3plus_1526015192080"><rect width="1000" height="1000"></rect></clipPath><g id="container" clip-path="url(#clipping_d3plus_1526015192080)" transform="translate(0,0)"><g id="zoom"><g id="d3plus_viz" transform=""><rect id="d3plus_overlay" width="1000" height="1000" opacity="0" x="0" y="0"></rect><g id="app"><g id="tree_map" opacity="1"></g></g><g id="edges" opacity="1"></g><g id="focus"></g><g id="edge_hover" opacity="0"></g><g id="data" opacity="1"><g opacity="1" transform="translate(981,948)scale(1)" id="d3plus_group_A_rect" class="d3plus_rect"><rect class="d3plus_data" x="-18" y="-51" width="36" height="102" fill="#b22200" opacity="0.9" vector-effect="non-scaling-stroke" style="stroke: rgb(143, 27, 0); stroke-width: 1;" shape-rendering="crispEdges" transform="" ry="0" rx="0"></rect><text id="d3plus_label_A_rect" class="d3plus_label" opacity="1" font-weight="200" font-family="Helvetica Neue" stroke="none" pointer-events="none" fill="#e9ccc5" text-anchor="middle" font-size="40px" x="-14.5" y="-47.5" style="font-size: 40px;" transform="rotate(0,0,0)scale(1)translate(0,0)rotate(0, 33, 0)translate(0,16.7)"><tspan x="0px" dy="44px" dominant-baseline="alphabetic" style="baseline-shift: 0%;">A</tspan></text></g><g opacity="1" transform="translate(880,948)scale(1)" id="d3plus_group_B_rect" class="d3plus_rect"><rect class="d3plus_data" x="-49" y="-51" width="98" height="102" fill="#282F6B" opacity="0.9" vector-effect="non-scaling-stroke" style="stroke: rgb(32, 37, 86); stroke-width: 1;" shape-rendering="crispEdges" transform="" ry="0" rx="0"></rect><text id="d3plus_label_B_rect" class="d3plus_label" opacity="1" font-weight="200" font-family="Helvetica Neue" stroke="none" pointer-events="none" fill="#cdceda" text-anchor="middle" font-size="40px" x="-45.5" y="-47.5" style="font-size: 40px;" transform="rotate(0,0,0)scale(1)translate(0,0)rotate(0, 2, 0)translate(0,16.7)"><tspan x="0px" dy="44px" dominant-baseline="alphabetic" style="baseline-shift: 0%;">B</tspan></text></g><g opacity="1" transform="translate(915,828)scale(1)" id="d3plus_group_C_rect" class="d3plus_rect"><rect class="d3plus_data" x="-84" y="-69" width="168" height="138" fill="#EACE3F" opacity="0.9" vector-effect="non-scaling-stroke" style="stroke: rgb(188, 166, 50); stroke-width: 1;" shape-rendering="crispEdges" transform="" ry="0" rx="0"></rect><text id="d3plus_label_C_rect" class="d3plus_label" opacity="1" font-weight="200" font-family="Helvetica Neue" stroke="none" pointer-events="none" fill="#655f43" text-anchor="middle" font-size="40px" x="-80.5" y="-65.5" style="font-size: 40px;" transform="rotate(0,0,0)scale(1)translate(0,0)rotate(0, -15, 0)translate(0,34.7)"><tspan x="0px" dy="44px" dominant-baseline="alphabetic" style="baseline-shift: 0%;">C</tspan></text></g><g opacity="1" transform="translate(692.5,879)scale(1)" id="d3plus_group_D_rect" class="d3plus_rect"><rect class="d3plus_data" x="-138.5" y="-120" width="277" height="240" fill="#B35C1E" opacity="0.9" vector-effect="non-scaling-stroke" style="stroke: rgb(144, 74, 24); stroke-width: 1;" shape-rendering="crispEdges" transform="" ry="0" rx="0"></rect><text id="d3plus_label_D_rect" class="d3plus_label" opacity="1" font-weight="200" font-family="Helvetica Neue" stroke="none" pointer-events="none" fill="#e9d7cb" text-anchor="middle" font-size="40px" x="-135" y="-116.5" style="font-size: 40px;" transform="rotate(0,0,0)scale(1)translate(0,0)rotate(0, -18.5, 0)translate(0,85.7)"><tspan x="0px" dy="44px" dominant-baseline="alphabetic" style="baseline-shift: 0%;">D</tspan></text></g><g opacity="1" transform="translate(946,948)scale(1)" id="d3plus_group_E_rect" class="d3plus_rect"><rect class="d3plus_data" x="-17" y="-51" width="34" height="102" fill="#5F487C" opacity="0.9" vector-effect="non-scaling-stroke" style="stroke: rgb(76, 58, 100); stroke-width: 1;" shape-rendering="crispEdges" transform="" ry="0" rx="0"></rect><text id="d3plus_label_E_rect" class="d3plus_label" opacity="1" font-weight="200" font-family="Helvetica Neue" stroke="none" pointer-events="none" fill="#d8d3de" text-anchor="middle" font-size="40px" x="-13.5" y="-47.5" style="font-size: 40px;" transform="rotate(0,0,0)scale(1)translate(0,0)rotate(0, 34, 0)translate(0,16.7)"><tspan x="0px" dy="44px" dominant-baseline="alphabetic" style="baseline-shift: 0%;">E</tspan></text></g><g opacity="1" transform="translate(277.5,879)scale(1)" id="d3plus_group_F_rect" class="d3plus_rect"><rect class="d3plus_data" x="-276.5" y="-120" width="553" height="240" fill="#759143" opacity="0.9" vector-effect="non-scaling-stroke" style="stroke: rgb(94, 117, 54); stroke-width: 1;" shape-rendering="crispEdges" transform="" ry="0" rx="0"></rect><text id="d3plus_label_F_rect" class="d3plus_label" opacity="1" font-weight="200" font-family="Helvetica Neue" stroke="none" pointer-events="none" fill="#dce2d2" text-anchor="middle" font-size="40px" x="-273" y="-116.5" style="font-size: 40px;" transform="rotate(0,0,0)scale(1)translate(0,0)rotate(0, -156.5, 0)translate(0,85.7)"><tspan x="0px" dy="44px" dominant-baseline="alphabetic" style="baseline-shift: 0%;">F</tspan></text></g><g opacity="1" transform="translate(824,380)scale(1)" id="d3plus_group_G_rect" class="d3plus_rect" style="cursor: auto;"><rect class="d3plus_data" x="-175" y="-379" width="350" height="758" fill="#419391" opacity="0.9" vector-effect="non-scaling-stroke" style="stroke: rgb(52, 118, 117); stroke-width: 1;" shape-rendering="crispEdges" transform="" ry="0" rx="0"></rect><text id="d3plus_label_G_rect" class="d3plus_label" opacity="1" font-weight="200" font-family="Helvetica Neue" stroke="none" pointer-events="none" fill="#d2e2e2" text-anchor="middle" font-size="40px" x="-171.5" y="-375.5" style="font-size: 40px;" transform="rotate(0,0,0)scale(1)translate(0,0)rotate(0, 204, 0)translate(0,344.7)"><tspan x="0px" dy="44px" dominant-baseline="alphabetic" style="baseline-shift: 0%;">G</tspan></text></g><g opacity="1" transform="translate(325,380)scale(1)" id="d3plus_group_other_rect" class="d3plus_rect" style="cursor: auto;"><rect class="d3plus_data" x="-324" y="-379" width="648" height="758" fill="#224F20" opacity="0.9" vector-effect="non-scaling-stroke" style="stroke: rgb(27, 63, 25); stroke-width: 1;" shape-rendering="crispEdges" transform="" ry="0" rx="0"></rect><text id="d3plus_label_other_rect" class="d3plus_label" opacity="1" font-weight="200" font-family="Helvetica Neue" stroke="none" pointer-events="none" fill="#ccd5cc" text-anchor="middle" font-size="40px" x="-320.5" y="-375.5" style="font-size: 40px;" transform="rotate(0,0,0)scale(1)translate(0,0)rotate(0, 55, 0)translate(0,344.7)"><tspan x="0px" dy="44px" dominant-baseline="alphabetic" style="baseline-shift: 0%;">Other</tspan></text></g></g><g id="data_focus"></g><g id="d3plus_labels"></g></g></g></g><defs></defs></svg>